<?xml version="1.0" standalone="no"?>
<svg xmlns="http://www.w3.org/2000/svg" width="32" height="32" viewBox="0 0 32 32">
  <rect width="32" height="32" rx="8" fill="#5865F2"/>
  <path d="M11.3 10.4C14.1 9.6 17.9 9.6 20.7 10.4C22.1 12.5 22.8 14.9 22.9 17.5C20.8 19 18.8 19.6 16.8 19.8L16.1 18.6C17.2 18.4 18.2 18 19.1 17.4C18.8 17.2 18.5 17.1 18.2 16.9C16.8 17.5 15.2 17.5 13.8 16.9C13.5 17.1 13.2 17.2 12.9 17.4C13.8 18 14.8 18.4 15.9 18.6L15.2 19.8C13.2 19.6 11.2 19 9.1 17.5C9.2 14.9 9.9 12.5 11.3 10.4Z" fill="#FFFFFF"/>
  <circle cx="13.5" cy="15.2" r="1.3" fill="#5865F2"/>
  <circle cx="18.5" cy="15.2" r="1.3" fill="#5865F2"/>
</svg>
