<?xml version="1.0" standalone="no"?>
<svg xmlns="http://www.w3.org/2000/svg" width="32" height="32" viewBox="0 0 32 32">
  <rect width="32" height="32" rx="8" fill="#25D366"/>
  <path d="M16 7.3C11.2 7.3 7.4 11 7.4 15.6C7.4 17.1 7.8 18.5 8.5 19.7L7.3 24.7L12.5 23.4C13.6 24 14.8 24.3 16 24.3C20.8 24.3 24.6 20.5 24.6 15.8C24.6 11.1 20.8 7.3 16 7.3Z" fill="#FFFFFF"/>
  <path d="M12.5 11.8C12.8 11.2 13 11.2 13.4 11.2H14C14.2 11.2 14.4 11.3 14.5 11.6L15.4 13.7C15.5 14 15.5 14.2 15.3 14.4L14.7 15.1C15.3 16.2 16.2 17.1 17.6 17.8L18.4 16.9C18.6 16.7 18.8 16.6 19.1 16.7L21.1 17.6C21.4 17.8 21.5 18 21.5 18.3C21.4 19.2 20.7 20.3 19.5 20.3C17.2 20.3 11.7 17.7 11.7 13.4C11.7 12.8 12.1 12.2 12.5 11.8Z" fill="#25D366"/>
</svg>
