<?xml version="1.0" standalone="no"?>
<svg xmlns="http://www.w3.org/2000/svg" width="32" height="32" viewBox="0 0 32 32">
  <rect width="32" height="32" rx="7" fill="#FFFFFF"/>
  <path d="M14.2 7.1C8.8 7.1 4.5 10.6 4.5 15C4.5 17.5 5.9 19.7 8.1 21.2L7.3 24.2C7.2 24.8 7.8 25.2 8.3 24.9L11.8 23.1C12.6 23.3 13.4 23.4 14.2 23.4C19.6 23.4 23.9 19.8 23.9 15.4C23.9 10.9 19.6 7.1 14.2 7.1Z" fill="#1AAD19"/>
  <path d="M18.7 11.3C23.5 11.3 27.4 14.5 27.4 18.4C27.4 20.7 26.1 22.7 24.1 24L24.8 26.7C24.9 27.2 24.4 27.6 23.9 27.3L20.8 25.8C20.1 26 19.4 26.1 18.7 26.1C13.9 26.1 10 22.9 10 19C10 15 13.9 11.3 18.7 11.3Z" fill="#2F8FEE"/>
  <circle cx="10.3" cy="14.2" r="1.1" fill="#FFFFFF"/>
  <circle cx="14.4" cy="14.2" r="1.1" fill="#FFFFFF"/>
  <circle cx="17.1" cy="18.7" r="1" fill="#FFFFFF"/>
  <circle cx="20.7" cy="18.7" r="1" fill="#FFFFFF"/>
</svg>
