<?xml version="1.0" standalone="no"?>
<svg xmlns="http://www.w3.org/2000/svg" width="32" height="32" viewBox="0 0 32 32">
  <rect width="32" height="32" rx="7" fill="#FFFFFF"/>
  <path d="M13.3 4.8C12 4.8 10.9 5.9 10.9 7.2V13.3H7.2C5.9 13.3 4.8 14.4 4.8 15.7C4.8 17 5.9 18.1 7.2 18.1H13.3C14.6 18.1 15.7 17 15.7 15.7V7.2C15.7 5.9 14.6 4.8 13.3 4.8Z" fill="#36C5F0"/>
  <path d="M27.2 13.3C27.2 12 26.1 10.9 24.8 10.9H18.7V7.2C18.7 5.9 17.6 4.8 16.3 4.8C15 4.8 13.9 5.9 13.9 7.2V13.3C13.9 14.6 15 15.7 16.3 15.7H24.8C26.1 15.7 27.2 14.6 27.2 13.3Z" fill="#2EB67D"/>
  <path d="M18.7 27.2C20 27.2 21.1 26.1 21.1 24.8V18.7H24.8C26.1 18.7 27.2 17.6 27.2 16.3C27.2 15 26.1 13.9 24.8 13.9H18.7C17.4 13.9 16.3 15 16.3 16.3V24.8C16.3 26.1 17.4 27.2 18.7 27.2Z" fill="#ECB22E"/>
  <path d="M4.8 18.7C4.8 20 5.9 21.1 7.2 21.1H13.3V24.8C13.3 26.1 14.4 27.2 15.7 27.2C17 27.2 18.1 26.1 18.1 24.8V18.7C18.1 17.4 17 16.3 15.7 16.3H7.2C5.9 16.3 4.8 17.4 4.8 18.7Z" fill="#E01E5A"/>
</svg>
