<svg xmlns="http://www.w3.org/2000/svg" width="1024" height="1024" viewBox="0 0 1024 1024">
  <g fill="none" stroke-linecap="round" stroke-linejoin="round">
    <path d="M246 792L512 224L730 792" stroke="#7D4B3B" stroke-width="118" opacity="0.36"/>
    <path d="M246 792L512 224L730 792" stroke="#995F4C" stroke-width="92"/>
    <path d="M332 632H650" stroke="#7D4B3B" stroke-width="118" opacity="0.36"/>
    <path d="M332 632H650" stroke="#995F4C" stroke-width="92"/>
    <path d="M246 792H360" stroke="#995F4C" stroke-width="92"/>
    <path d="M650 792H770" stroke="#995F4C" stroke-width="92"/>
  </g>
  <g fill="#995F4C">
    <rect x="612" y="208" width="74" height="74" rx="16" transform="rotate(18 649 245)" opacity="0.96"/>
    <rect x="704" y="216" width="48" height="48" rx="11" transform="rotate(-26 728 240)" opacity="0.82"/>
    <rect x="790" y="274" width="34" height="34" rx="8" transform="rotate(17 807 291)" opacity="0.72"/>
    <rect x="648" y="352" width="58" height="58" rx="13" transform="rotate(-18 677 381)" opacity="0.86"/>
    <rect x="758" y="410" width="45" height="45" rx="10" transform="rotate(26 780.5 432.5)" opacity="0.74"/>
    <rect x="844" y="510" width="28" height="28" rx="7" transform="rotate(-18 858 524)" opacity="0.58"/>
    <rect x="706" y="556" width="36" height="36" rx="8" transform="rotate(20 724 574)" opacity="0.68"/>
    <rect x="805" y="682" width="28" height="28" rx="7" transform="rotate(-25 819 696)" opacity="0.52"/>
  </g>
</svg>
